{
  "accessors": [
    {
      "bufferView": 1,
      "componentType": 5126,
      "count": 6834,
      "max": [
        -25.423349380493164,
        -0,
        27.592401504516602
      ],
      "min": [
        -39.511486053466797,
        -5.0617280006408691,
        -7.0026202201843262
      ],
      "type": "VEC3"
    },
    {
      "bufferView": 1,
      "byteOffset": 82008,
      "componentType": 5126,
      "count": 6834,
      "max": [
        0.99581676721572876,
        1,
        0.99750244617462158
      ],
      "min": [
        -0.99851232767105103,
        -1,
        -0.99992561340332031
      ],
      "type": "VEC3"
    },
    {
      "bufferView": 0,
      "componentType": 5125,
      "count": 40992,
      "max": [
        6833
      ],
      "min": [
        0
      ],
      "type": "SCALAR"
    },
    {
      "bufferView": 1,
      "byteOffset": 164016,
      "componentType": 5126,
      "count": 5634,
      "max": [
        -26.713409423828125,
        -0,
        -17.72020149230957
      ],
      "min": [
        -38.168628692626953,
        -5.0617280006408691,
        -30.194585800170898
      ],
      "type": "VEC3"
    },
    {
      "bufferView": 1,
      "byteOffset": 231624,
      "componentType": 5126,
      "count": 5634,
      "max": [
        0.99991273880004883,
        1,
        0.99993395805358887
      ],
      "min": [
        -0.99993366003036499,
        -1,
        -0.99993813037872314
      ],
      "type": "VEC3"
    },
    {
      "bufferView": 0,
      "byteOffset": 163968,
      "componentType": 5125,
      "count": 33792,
      "max": [
        5633
      ],
      "min": [
        0
      ],
      "type": "SCALAR"
    }
  ],
  "asset": {
    "extras": {
      "author": "Huargenn (https://sketchfab.com/Huargenn)",
      "license": "CC-BY-4.0 (http://creativecommons.org/licenses/by/4.0/)",
      "source": "https://sketchfab.com/3d-models/exclamation-of-mission-fcd0149ec6b64a51b4ebdd464386b1e7",
      "title": "Exclamation Of Mission"
    },
    "generator": "Sketchfab-6.22.0",
    "version": "2.0"
  },
  "bufferViews": [
    {
      "buffer": 0,
      "byteLength": 299136,
      "byteOffset": 0,
      "name": "floatBufferViews",
      "target": 34963
    },
    {
      "buffer": 0,
      "byteLength": 299232,
      "byteOffset": 299136,
      "byteStride": 12,
      "name": "floatBufferViews",
      "target": 34962
    }
  ],
  "buffers": [
    {
      "byteLength": 598368,
      "uri": "scene.bin"
    }
  ],
  "materials": [
    {
      "doubleSided": true,
      "emissiveFactor": [
        0,
        0,
        0
      ],
      "name": "Scene_-_Root",
      "pbrMetallicRoughness": {
        "baseColorFactor": [
          1,
          0.70525303650000004,
          0,
          1
        ],
        "metallicFactor": 0,
        "roughnessFactor": 0.59999999999999998
      }
    }
  ],
  "meshes": [
    {
      "primitives": [
        {
          "attributes": {
            "NORMAL": 1,
            "POSITION": 0
          },
          "indices": 2,
          "material": 0,
          "mode": 4
        }
      ]
    },
    {
      "primitives": [
        {
          "attributes": {
            "NORMAL": 4,
            "POSITION": 3
          },
          "indices": 5,
          "material": 0,
          "mode": 4
        }
      ]
    }
  ],
  "nodes": [
    {
      "children": [
        1
      ],
      "name": "RootNode (gltf orientation matrix)",
      "rotation": [
        -0.70710678118654746,
        -0,
        -0,
        0.70710678118654757
      ]
    },
    {
      "children": [
        2
      ],
      "name": "RootNode (model correction matrix)"
    },
    {
      "children": [
        3,
        4
      ],
      "name": "aba753e6a39d4af88b5cdd6608528d05.obj.cleaner"
    },
    {
      "mesh": 0,
      "name": ""
    },
    {
      "mesh": 1,
      "name": ""
    }
  ],
  "scene": 0,
  "scenes": [
    {
      "name": "OSG_Scene",
      "nodes": [
        0
      ]
    }
  ]
}

